<?xml version="1.0" encoding="UTF-8" standalone="no"?>
<!DOCTYPE svg PUBLIC "-//W3C//DTD SVG 1.1//EN" "http://www.w3.org/Graphics/SVG/1.1/DTD/svg11.dtd">
<svg width="100%" height="100%" viewBox="0 0 139 88" version="1.1" xmlns="http://www.w3.org/2000/svg" xmlns:xlink="http://www.w3.org/1999/xlink" xml:space="preserve" xmlns:serif="http://www.serif.com/" style="fill-rule:evenodd;clip-rule:evenodd;stroke-linejoin:round;stroke-miterlimit:2;">
    <g transform="matrix(1,0,0,1,-54.1708,-1497.47)">
        <g transform="matrix(4.16667,0,0,4.16667,0,0)">
            <g transform="matrix(1,0,0,1,5.04,8.4)">
                <path d="M41.26,351.041L41.26,371.896L41.256,371.9L7.99,371.9L7.99,351.041L41.26,351.041Z" style="fill:rgb(53,78,160);fill-rule:nonzero;"/>
                <path d="M41.26,369.724L41.26,371.896L41.256,371.9L37.793,371.9L27.583,365.498L26.561,364.857L25.355,364.099L24.95,363.845L23.723,363.078L23.266,362.789L22.881,362.55L22.109,362.068L21.86,361.91L21.483,361.675L17.857,359.398L16.227,358.377L7.99,353.214L7.99,351.041L8.018,351L8.083,351.041L11.452,351.041L21.86,357.564L22.881,358.207L23.155,358.377L24.787,359.398L24.95,359.502L25.575,359.894L26.561,360.511L26.728,360.619L27.583,361.154L28.417,361.675L30.656,363.078L32.287,364.099L41.26,369.724Z" style="fill:rgb(250,241,247);fill-rule:nonzero;"/>
                <path d="M41.263,371.836L41.27,371.912L39.044,371.9L27.583,364.714L26.606,364.099L26.561,364.072L25.575,363.455L24.979,363.078L23.891,362.396L22.881,361.767L22.738,361.675L22.109,361.279L21.86,361.125L19.108,359.398L17.481,358.377L7.99,352.425L7.99,350.994L8.018,351L8.083,351.041L19.787,358.377L21.414,359.398L21.86,359.677L22.881,360.32L23.266,360.56L23.891,360.953L25.044,361.675L26.561,362.625L26.728,362.732L27.283,363.078L27.583,363.267L28.911,364.099L41.263,371.836Z" style="fill:rgb(239,60,55);fill-rule:nonzero;"/>
                <path d="M41.26,351.453L41.26,353.623L33.673,358.377L32.046,359.398L28.417,361.675L27.583,362.195L26.728,362.732L26.561,362.837L26.176,363.078L25.575,363.455L24.95,363.845L24.545,364.099L22.881,365.142L21.86,365.785L12.102,371.9L7.99,371.9L7.99,370.134L17.616,364.099L19.243,363.078L21.483,361.675L21.86,361.439L22.109,361.279L22.881,360.796L23.266,360.56L24.95,359.502L25.113,359.398L26.561,358.492L26.745,358.377L27.583,357.851L38.448,351.041L40.998,351.041L41.26,351.453Z" style="fill:rgb(250,241,247);fill-rule:nonzero;"/>
                <path d="M41.174,351.56L30.301,358.377L28.67,359.398L27.583,360.082L26.728,360.619L26.561,360.724L25.044,361.675L23.891,362.396L23.266,362.789L22.881,363.029L22.804,363.078L21.86,363.671L21.173,364.099L8.738,371.9L7.99,371.9L7.99,370.923L18.867,364.099L20.498,363.078L21.86,362.224L22.109,362.068L22.738,361.675L22.881,361.582L23.891,360.953L25.575,359.894L26.364,359.398L26.561,359.277L27.583,358.634L27.995,358.377L39.694,351.041L41.26,351.041L41.263,351.498L41.174,351.56Z" style="fill:rgb(239,60,55);fill-rule:nonzero;"/>
                <rect x="7.961" y="358.377" width="33.315" height="5.722" style="fill:white;fill-rule:nonzero;"/>
                <rect x="7.961" y="359.398" width="33.315" height="3.68" style="fill:rgb(239,60,55);fill-rule:nonzero;"/>
                <rect x="22.881" y="351.041" width="3.68" height="20.859" style="fill:rgb(208,31,51);fill-rule:nonzero;"/>
                <path d="M26.552,364.099L27.574,364.099L27.574,371.9L21.851,371.9L21.851,364.099L22.873,364.099L22.873,358.377L21.851,358.377L21.851,351.041L27.574,351.041L27.574,358.377L26.552,358.377L26.552,364.099Z" style="fill:white;fill-rule:nonzero;"/>
                <rect x="22.854" y="351.041" width="3.717" height="20.859" style="fill:rgb(239,60,55);fill-rule:nonzero;"/>
            </g>
        </g>
    </g>
</svg>
